<svg width="34" height="37" viewBox="0 0 34 37" fill="none" xmlns="http://www.w3.org/2000/svg">
<path fill-rule="evenodd" clip-rule="evenodd" d="M17.6567 35.43L17.6367 35.4333L17.5183 35.4917L17.485 35.4983L17.4617 35.4917L17.3433 35.4317C17.3256 35.4272 17.3122 35.4306 17.3033 35.4417L17.2967 35.4583L17.2683 36.1717L17.2767 36.205L17.2933 36.2267L17.4667 36.35L17.4917 36.3567L17.5117 36.35L17.685 36.2267L17.705 36.2L17.7117 36.1717L17.6833 35.46C17.6789 35.4422 17.67 35.4322 17.6567 35.43ZM18.0967 35.2417L18.0733 35.245L17.7667 35.4L17.75 35.4167L17.745 35.435L17.775 36.1517L17.7833 36.1717L17.7967 36.185L18.1317 36.3383C18.1528 36.3439 18.1689 36.3394 18.18 36.325L18.1867 36.3017L18.13 35.2783C18.1244 35.2572 18.1133 35.245 18.0967 35.2417ZM16.905 35.245C16.8977 35.2405 16.8889 35.2391 16.8805 35.241C16.8721 35.2428 16.8648 35.2479 16.86 35.255L16.85 35.2783L16.7933 36.3017C16.7944 36.3217 16.8039 36.335 16.8217 36.3417L16.8467 36.3383L17.1817 36.1833L17.1983 36.17L17.2033 36.1517L17.2333 35.435L17.2283 35.415L17.2117 35.3983L16.905 35.245Z" fill="white"/>
<path fill-rule="evenodd" clip-rule="evenodd" d="M16.6667 0C7.46167 0 0 7.46167 0 16.6667C0 25.8717 7.46167 33.3333 16.6667 33.3333C25.8717 33.3333 33.3333 25.8717 33.3333 16.6667C33.3333 7.46167 25.8717 0 16.6667 0ZM10.8333 12.5C10.8333 11.734 10.9842 10.9754 11.2774 10.2677C11.5705 9.55995 12.0002 8.91688 12.5419 8.37521C13.0836 7.83353 13.7266 7.40386 14.4343 7.1107C15.1421 6.81755 15.9006 6.66667 16.6667 6.66667C17.4327 6.66667 18.1913 6.81755 18.899 7.1107C19.6067 7.40386 20.2498 7.83353 20.7915 8.37521C21.3331 8.91688 21.7628 9.55995 22.056 10.2677C22.3491 10.9754 22.5 11.734 22.5 12.5C22.5 14.0471 21.8854 15.5308 20.7915 16.6248C19.6975 17.7188 18.2138 18.3333 16.6667 18.3333C15.1196 18.3333 13.6358 17.7188 12.5419 16.6248C11.4479 15.5308 10.8333 14.0471 10.8333 12.5ZM27.0967 24.9733C25.8486 26.5422 24.2625 27.8091 22.4565 28.6795C20.6506 29.5499 18.6714 30.0013 16.6667 30C14.6619 30.0013 12.6827 29.5499 10.8768 28.6795C9.07082 27.8091 7.48468 26.5422 6.23667 24.9733C8.93833 23.035 12.625 21.6667 16.6667 21.6667C20.7083 21.6667 24.395 23.035 27.0967 24.9733Z" fill="white"/>
</svg>
